name D:\school\WTK\thesis\model\3dpredictsim\Results\batch_windlass\Pog_s1_tmt_aCst_d05_k1000_WL20_ig24_act_TTC.mot
datacolumns 128
datarows 4
range 1.85521323 1.89231749
endheader
time	pelvis_tilt	pelvis_list	pelvis_rotation	pelvis_tx	pelvis_ty	pelvis_tz	hip_flexion_l	hip_adduction_l	hip_rotation_l	hip_flexion_r	hip_adduction_r	hip_rotation_r	knee_angle_l	knee_angle_r	ankle_angle_l	ankle_angle_r	subtalar_angle_l	subtalar_angle_r	tmt_angle_l	tmt_angle_r	mtp_angle_l	mtp_angle_r	lumbar_extension	lumbar_bending	lumbar_rotation	arm_flex_l	arm_add_l	arm_rot_l	arm_flex_r	arm_add_r	arm_rot_r	elbow_flex_l	elbow_flex_r	pro_sup_l	pro_sup_r	glut_med1_l/activation	glut_med2_l/activation	glut_med3_l/activation	glut_min1_l/activation	glut_min2_l/activation	glut_min3_l/activation	semimem_l/activation	semiten_l/activation	bifemlh_l/activation	bifemsh_l/activation	sar_l/activation	add_long_l/activation	add_brev_l/activation	add_mag1_l/activation	add_mag2_l/activation	add_mag3_l/activation	tfl_l/activation	pect_l/activation	grac_l/activation	glut_max1_l/activation	glut_max2_l/activation	glut_max3_l/activation	iliacus_l/activation	psoas_l/activation	quad_fem_l/activation	gem_l/activation	peri_l/activation	rect_fem_l/activation	vas_med_l/activation	vas_int_l/activation	vas_lat_l/activation	med_gas_l/activation	lat_gas_l/activation	soleus_l/activation	tib_post_l/activation	flex_dig_l/activation	flex_hal_l/activation	tib_ant_l/activation	per_brev_l/activation	per_long_l/activation	per_tert_l/activation	ext_dig_l/activation	ext_hal_l/activation	ercspn_l/activation	intobl_l/activation	extobl_l/activation	glut_med1_r/activation	glut_med2_r/activation	glut_med3_r/activation	glut_min1_r/activation	glut_min2_r/activation	glut_min3_r/activation	semimem_r/activation	semiten_r/activation	bifemlh_r/activation	bifemsh_r/activation	sar_r/activation	add_long_r/activation	add_brev_r/activation	add_mag1_r/activation	add_mag2_r/activation	add_mag3_r/activation	tfl_r/activation	pect_r/activation	grac_r/activation	glut_max1_r/activation	glut_max2_r/activation	glut_max3_r/activation	iliacus_r/activation	psoas_r/activation	quad_fem_r/activation	gem_r/activation	peri_r/activation	rect_fem_r/activation	vas_med_r/activation	vas_int_r/activation	vas_lat_r/activation	med_gas_r/activation	lat_gas_r/activation	soleus_r/activation	tib_post_r/activation	flex_dig_r/activation	flex_hal_r/activation	tib_ant_r/activation	per_brev_r/activation	per_long_r/activation	per_tert_r/activation	ext_dig_r/activation	ext_hal_r/activation	ercspn_r/activation	intobl_r/activation	extobl_r/activation	
          1.85521323	         -2.93017643	          0.63673747	        -10.10144962	          2.31901653	          0.85552993	          0.00320122	         33.39521601	         -1.56821620	         -3.20079734	        -16.06013877	         -3.34993698	          5.98260488	        -19.86651047	        -17.32818383	          0.48301375	        -11.93043134	          6.21320291	         17.76116999	         -0.14673831	         -7.87152926	          0.71060895	         37.75617744	          0.54561193	          2.48139915	          2.97314459	        -13.18719248	        -13.66707720	         13.39342073	          2.37897211	        -13.51797364	         15.23374746	         17.95833174	         45.04596597	         86.51662706	         86.51662706	          0.05000267	          0.05000583	          0.05002106	          0.05001275	          0.05000770	          0.05000549	          0.07273799	          0.07273714	          0.09893448	          0.06030746	          0.05466682	          0.07277164	          0.09507684	          0.09135380	          0.05469160	          0.08735562	          0.05000239	          0.05002987	          0.06067310	          0.05000786	          0.05778189	          0.08657036	          0.07735670	          0.07502120	          0.17352072	          0.06086009	          0.06964239	          0.05000028	          0.05003567	          0.09668972	          0.08111949	          0.08237377	          0.07273881	          0.07273771	          0.06030676	          0.06032313	          0.06034264	          0.46775362	          0.27971003	          0.17341161	          0.12337644	          0.48793449	          0.13308407	          0.05000005	          0.15169404	          0.12212167	          0.12427507	          0.08159512	          0.06233846	          0.18915846	          0.12769408	          0.08773179	          0.05000519	          0.05000034	          0.05000039	          0.05000053	          0.10581516	          0.06911588	          0.05000153	          0.05000125	          0.05000172	          0.05000145	          0.18542052	          0.05002410	          0.05000129	          0.05000707	          0.05000393	          0.05000230	          0.34994667	          0.39155028	          0.05000047	          0.05000292	          0.07274043	          0.18566993	          0.11137133	          0.11282316	          0.10199649	          0.14523686	          0.20865320	          0.05000001	          0.14866033	          0.16479087	          0.17259017	          0.10352795	          0.44918913	          0.36444453	          0.47932053	          0.42427172	          0.20071691	          0.05000003	          0.05029107	          0.05705876	
          1.86758131	         -2.92640124	          0.57067808	        -10.27738739	          2.33923638	          0.85404187	          0.00283721	         32.88120945	         -1.35037758	         -3.00703097	        -16.36461148	         -3.65178536	          5.71531124	        -19.81714504	        -18.24745034	          0.02183495	        -15.18537627	          5.71937112	         18.02004412	         -0.18176659	         -8.28651002	          0.87303268	         38.69272304	          0.78686895	          2.29572086	          3.08005670	        -14.76963671	        -13.65878100	         13.55554940	          1.97606775	        -13.58760480	         15.62075416	         18.04402433	         46.15767557	         86.51662706	         86.51662706	          0.07896458	          0.05000174	          0.05000038	          0.05000166	          0.05000208	          0.05000196	          0.06030682	          0.06030610	          0.08202616	          0.05000068	          0.05000090	          0.08275012	          0.08773178	          0.13603840	          0.15396701	          0.12653523	          0.05000045	          0.05001438	          0.05030412	          0.06030175	          0.05000559	          0.14800325	          0.06413615	          0.06219981	          0.18899266	          0.05047070	          0.10661530	          0.05676476	          0.20105864	          0.20547301	          0.17950381	          0.06829567	          0.06030738	          0.06030646	          0.05000004	          0.05001374	          0.05002989	          0.62265560	          0.24897400	          0.14377476	          0.51953694	          0.62674861	          0.36039772	          0.05000003	          0.12576874	          0.10125044	          0.10303595	          0.06765031	          0.05168472	          0.15683051	          0.10587063	          0.07273819	          0.05000752	          0.05001591	          0.05000438	          0.06030676	          0.08773125	          0.13613156	          0.21671968	          0.11063949	          0.05003069	          0.05000276	          0.15373124	          0.10578624	          0.07273850	          0.05000631	          0.05000313	          0.05000226	          0.29013898	          0.32463230	          0.06520448	          0.05002252	          0.06030927	          0.15393796	          0.09233749	          0.09354121	          0.08456485	          0.12041512	          0.17299328	          0.05000008	          0.12325350	          0.13662730	          0.14309364	          0.30763994	          0.44999643	          0.35146671	          0.71462383	          0.56669155	          0.16641348	          0.05000005	          0.05077302	          0.07273829	
          1.87994940	         -2.91522346	          0.51430568	        -10.40712302	          2.35960947	          0.85201390	          0.00246810	         32.25780512	         -1.08530201	         -2.75032256	        -16.47983418	         -3.92620688	          5.45508012	        -20.48665765	        -19.62334661	         -0.43464614	        -17.91537820	          5.19354745	         18.20846546	         -0.25305816	         -8.25779642	          1.11938768	         37.83750656	          1.02890112	          2.07939496	          3.17015511	        -16.31552771	        -13.66445566	         13.80180426	          1.52485705	        -13.68208292	         15.96478775	         18.07592283	         47.26049931	         86.51662706	         86.51662706	          0.21558501	          0.05000068	          0.34972098	          0.05000160	          0.05000085	          0.05000084	          0.05000016	          0.05000016	          0.06800751	          0.05000013	          0.05000127	          0.07273735	          0.07273861	          0.11278902	          0.12765355	          0.12842397	          0.05000137	          0.06032440	          0.05529799	          0.05000033	          0.11957990	          0.13342956	          0.06030706	          0.06030647	          0.15669309	          0.05000058	          0.33131096	          0.06037748	          0.33969468	          0.32758468	          0.28726991	          0.05662361	          0.05000058	          0.05000002	          0.05000010	          0.05000024	          0.05000019	          0.62200467	          0.20642308	          0.11920293	          0.47306472	          0.51963430	          0.29880401	          0.05000006	          0.10427421	          0.08394621	          0.08542675	          0.06030464	          0.06030665	          0.13002765	          0.08777694	          0.06030710	          0.05787807	          0.05000065	          0.05000117	          0.05000043	          0.07273786	          0.11286757	          0.27929832	          0.11661247	          0.06034172	          0.05002329	          0.12745782	          0.08770953	          0.06030779	          0.05005700	          0.05006524	          0.06030053	          0.24055273	          0.26915096	          0.06030690	          0.06030585	          0.05000234	          0.12762916	          0.10581026	          0.10579844	          0.08587499	          0.09983555	          0.14342783	          0.06030565	          0.10218884	          0.11327704	          0.11863822	          0.25506277	          0.37309006	          0.29462272	          0.72106299	          0.75809188	          0.45570504	          0.07938407	          0.06030055	          0.06030697	
          1.89231749	         -2.89939512	          0.46611455	        -10.49015457	          2.37994928	          0.84976109	          0.00209460	         31.44889071	         -0.79247515	         -2.44657528	        -16.43555733	         -4.18681688	          5.20609371	        -21.48712947	        -21.35524922	         -0.44108612	        -20.13952823	          4.63385965	         18.32104597	         -0.61488553	         -7.78969437	          1.19055839	         35.09302988	          1.26449494	          1.84262881	          3.24345855	        -17.76870480	        -13.67208456	         14.13964208	          1.06371173	        -13.78191211	         16.27195779	         18.00747328	         48.28354224	         86.51662706	         86.51662706	          0.28960235	          0.37203774	          0.58588060	          0.22023208	          0.30725467	          0.46457210	          0.05000332	          0.05000263	          0.05638539	          0.05726405	          0.05000463	          0.06030621	          0.06030725	          0.09351288	          0.10583703	          0.10647835	          0.05000090	          0.05001511	          0.05000101	          0.26991991	          0.21222305	          0.13350578	          0.05000036	          0.05000018	          0.16264303	          0.15394070	          0.32008142	          0.05005869	          0.36345829	          0.36169741	          0.31989799	          0.05000002	          0.05000008	          0.05000001	          0.14889576	          0.05001081	          0.05000378	          0.73706620	          0.17114430	          0.09883053	          0.39221569	          0.57519625	          0.45345247	          0.05505343	          0.08645321	          0.06959937	          0.31240211	          0.05000014	          0.05000007	          0.17076608	          0.07277556	          0.05000055	          0.08326975	          0.05000016	          0.05000022	          0.05000025	          0.06030694	          0.09357805	          0.26940271	          0.09668344	          0.05003179	          0.05302952	          0.10567467	          0.07272061	          0.05000124	          0.05000151	          0.05000091	          0.05000051	          0.19944103	          0.22315168	          0.05000021	          0.05000046	          0.05000013	          0.10581666	          0.08773154	          0.08773147	          0.08572826	          0.08277314	          0.11891528	          0.05000015	          0.08472425	          0.09391749	          0.09836237	          0.23337549	          0.30932719	          0.24427034	          0.63061964	          0.86741406	          0.37782272	          0.12914139	          0.05000001	          0.05000022	
